<?xml version="1.0" encoding="UTF-8" standalone="no"?>
<svg width="32px" height="32px" viewBox="0 0 32 32" version="1.1" xmlns="http://www.w3.org/2000/svg" xmlns:xlink="http://www.w3.org/1999/xlink">
    <!-- Generator: sketchtool 3.7.2 (28276) - http://www.bohemiancoding.com/sketch -->
    <title>54D76CA3-AA7E-4C84-B39D-10518AC40036</title>
    <desc>Created with sketchtool.</desc>
    <defs></defs>
    <g id="web_challenge" stroke="none" stroke-width="1" fill="none" fill-rule="evenodd">
        <g id="web_challenge-02-list" transform="translate(-844.000000, -204.000000)">
            <g id="top" transform="translate(180.000000, 65.000000)">
                <g id="btns" transform="translate(256.000000, 135.000000)">
                    <g id="twitter" transform="translate(408.000000, 4.000000)">
                        <rect id="Rectangle-278" fill="#55ACEE" x="0" y="0" width="32" height="32" rx="16"></rect>
                        <g id="Group-2" transform="translate(7.000000, 5.000000)" fill="#FFFFFF">
                            <path d="M20,4.42406452 C19.2641282,4.7504115 18.4733165,4.97097553 17.6432935,5.07017448 C18.4905081,4.56232854 19.1410805,3.75820257 19.447456,2.80008413 C18.6546692,3.27025495 17.7765097,3.61174513 16.8418742,3.79580453 C16.0933465,2.99833571 15.0269578,2.5 13.8468122,2.5 C11.5806723,2.5 9.74344343,4.33715571 9.74344343,6.60314935 C9.74344343,6.92474121 9.77980175,7.23792019 9.84973847,7.53822378 C6.43951864,7.36711292 3.41607228,5.73354914 1.39229672,3.25108819 C1.03910165,3.85710889 0.836753356,4.56196276 0.836753356,5.31392882 C0.836753356,6.73746296 1.56121292,7.99339771 2.66220418,8.72919639 C1.98953875,8.70790812 1.35688943,8.52333663 0.803613885,8.2160101 C0.803321263,8.2331285 0.803321263,8.25032006 0.803321263,8.26758477 C0.803321263,10.2556604 2.21771096,11.9140971 4.09480961,12.2909945 C3.75046637,12.38478 3.38798054,12.4348915 3.01371667,12.4348915 C2.74933246,12.4348915 2.4922638,12.4092139 2.24177914,12.361297 C2.76389041,13.9914957 4.27923479,15.1777863 6.07476499,15.2109258 C4.67047076,16.311405 2.90120341,16.9673909 0.978821464,16.9673909 C0.64764622,16.9673909 0.321006621,16.9480047 0,16.9101101 C1.81586744,18.0743078 3.97271297,18.7535572 6.28991551,18.7535572 C13.8372289,18.7535572 17.9643732,12.5011705 17.9643732,7.07895314 C17.9643732,6.90103881 17.9604228,6.7240755 17.952522,6.54813636 C18.7541607,5.96962215 19.4498701,5.24691832 20,4.42406452" id="Fill-1"></path>
                        </g>
                    </g>
                </g>
            </g>
        </g>
    </g>
</svg>