<?xml version="1.0" encoding="utf-8"?>
<!-- Generator: Adobe Illustrator 19.0.0, SVG Export Plug-In . SVG Version: 6.00 Build 0)  -->
<svg version="1.1" id="Layer_1" xmlns="http://www.w3.org/2000/svg" xmlns:xlink="http://www.w3.org/1999/xlink" x="0px" y="0px"
	 viewBox="0 0 160 70" style="enable-background:new 0 0 160 70;" xml:space="preserve">
<style type="text/css">
	.st0{fill:#9B12EE;}
	.st1{fill:#FFFFFF;}
</style>
<g id="XMLID_16_">
	<polygon id="XMLID_2_" class="st0" points="159.9,0 0.1,70 0.1,0 	"/>
	<g id="XMLID_3_">
		<path id="XMLID_4_" class="st1" d="M12.8,17v-4.1H34V17H12.8z M23.5,30.3c-5.3,0-8.8-2.7-8.8-6.2c0-3.4,3.5-6.2,8.8-6.2
			c5.2,0,8.8,2.8,8.8,6.2C32.3,27.6,28.7,30.3,23.5,30.3z M41.8,43.2c-5.6-0.4-10.3-3.2-11.7-5.9c-1.4,2.6-6,5.4-11.6,5.7l-2.4-4.5
			c6.2-0.2,11.3-2.5,11.3-7.7v-0.2h5.8v0.2c0,5.4,5.3,7.2,11.1,7.8L41.8,43.2z M18,7.4h11v4H18V7.4z M23.5,26.5c2,0,3.5-1.1,3.5-2.4
			c0-1.3-1.5-2.5-3.5-2.5c-2,0-3.4,1.2-3.4,2.5C20.1,25.3,21.5,26.5,23.5,26.5z M41.9,21.9v10.4h-5.4V6.3h5.4v11.2h4.8v4.4H41.9z"/>
		<path id="XMLID_11_" class="st1" d="M50.1,8.6h6.1l-0.7,20.9h-4.6L50.1,8.6z M50.5,33.2H56v5.2h-5.5V33.2z"/>
	</g>
</g>
</svg>
