<?xml version="1.0" encoding="UTF-8" standalone="no"?>
<svg width="24px" height="20px" viewBox="0 0 24 20" version="1.1" xmlns="http://www.w3.org/2000/svg" xmlns:xlink="http://www.w3.org/1999/xlink">
    <!-- Generator: sketchtool 3.8.1 (29687) - http://www.bohemiancoding.com/sketch -->
    <title>D8009E84-0F86-4092-9B27-EA0E612C6FFB</title>
    <desc>Created with sketchtool.</desc>
    <defs></defs>
    <g id="web_illust" stroke="none" stroke-width="1" fill="none" fill-rule="evenodd" opacity="0.1">
        <g id="web_illust-03-detail" transform="translate(-1056.000000, -616.000000)" fill="#000000">
            <g id="siren" transform="translate(1056.000000, 614.000000)">
                <path d="M3,20.4934323 C3,19.9447748 3.44494629,19.5 3.99339768,19.5 L20.0066023,19.5 C20.5552407,19.5 21,19.9553211 21,20.4934323 L21,21.75 L3,21.75 L3,20.4934323 Z" id="Rectangle-41"></path>
                <path d="M7.46538896,19.493407 L19.5,19.493407 L18.2476945,9.48046724 C18.1102986,8.38190385 17.1007504,7.5 15.9914698,7.5 L8.0085302,7.5 C6.90195036,7.5 5.8891034,8.38668538 5.75230551,9.48046724 L4.5,19.493407 L6.26488864,19.493407 L6.26220703,19.5178109 L7.46218872,19.5178109 L7.46538896,19.493407 Z M7.46538896,19.493407 L6.26488864,19.493407 L7.25477054,10.4849949 C7.34486571,9.66508458 8.08566821,9.00041591 8.92678232,9.00041591 L14.7449543,9.00041591 C15.3000257,9.00041591 15.7564153,9.43921742 15.7647555,10.0096742 L15.7649231,10.0211374 L9.71004753,9.97294786 C9.16044537,9.9685737 8.65782297,10.4003141 8.58556047,10.9513631 L7.46538896,19.493407 Z" id="Path-29"></path>
                <rect id="Rectangle-42" x="11.25" y="2.25" width="1.5" height="3" rx="0.75"></rect>
                <rect id="Rectangle-42-Copy-3" transform="translate(4.590990, 6.090990) rotate(-45.000000) translate(-4.590990, -6.090990) " x="3.84099026" y="4.59099026" width="1.5" height="3" rx="0.75"></rect>
                <rect id="Rectangle-42-Copy-4" transform="translate(19.590990, 6.090990) scale(1, -1) rotate(-45.000000) translate(-19.590990, -6.090990) " x="18.8409903" y="4.59099026" width="1.5" height="3" rx="0.75"></rect>
                <rect id="Rectangle-42-Copy" transform="translate(21.750000, 12.750000) rotate(-90.000000) translate(-21.750000, -12.750000) " x="21" y="11.25" width="1.5" height="3" rx="0.75"></rect>
                <rect id="Rectangle-42-Copy-2" transform="translate(2.250000, 12.750000) rotate(-90.000000) translate(-2.250000, -12.750000) " x="1.5" y="11.25" width="1.5" height="3" rx="0.75"></rect>
            </g>
        </g>
    </g>
</svg>