<?xml version="1.0" encoding="utf-8"?>
<!-- Generator: Adobe Illustrator 19.0.0, SVG Export Plug-In . SVG Version: 6.00 Build 0)  -->
<svg version="1.1" id="Layer_1" xmlns="http://www.w3.org/2000/svg" xmlns:xlink="http://www.w3.org/1999/xlink" x="0px" y="0px"
	 viewBox="0 0 26 14" style="enable-background:new 0 0 26 14;" xml:space="preserve">
<style type="text/css">
	.st0{fill:#9B12EE;}
</style>
<g id="XMLID_1_">
	<path id="XMLID_20_" class="st0" d="M19,1.5c3,0,5.5,2.5,5.5,5.5c0,3-2.5,5.5-5.5,5.5H7C4,12.5,1.5,10,1.5,7C1.5,4,4,1.5,7,1.5H19
		 M19,0H7C3.2,0,0,3.2,0,7v0c0,3.8,3.2,7,7,7h12c3.8,0,7-3.1,7-7v0C26,3.2,22.9,0,19,0L19,0z"/>
</g>
<g id="XMLID_3_">
	<path id="XMLID_4_" class="st0" d="M6.5,8.3V2.9H8v5.3c0,1.5,0.6,2,1.8,2c1.2,0,1.7-0.5,1.7-2V2.9h1.3v5.3c0,2.1-1,3.1-3.1,3.1
		C7.6,11.3,6.5,10.3,6.5,8.3z"/>
	<path id="XMLID_6_" class="st0" d="M14.7,2.9h2.9c1.9,0,2.9,0.9,2.9,2.5c0,1.7-1.1,2.6-2.8,2.6h-1.5v3.1h-1.5V2.9z M17.4,7
		C18.5,7,19,6.5,19,5.6c0-1.1-0.4-1.5-1.5-1.5h-1.2V7H17.4z"/>
</g>
</svg>
