<?xml version="1.0" encoding="UTF-8" standalone="no"?>
<svg width="20px" height="22px" viewBox="0 0 20 22" version="1.1" xmlns="http://www.w3.org/2000/svg" xmlns:xlink="http://www.w3.org/1999/xlink">
    <!-- Generator: sketchtool 39.1 (31720) - http://www.bohemiancoding.com/sketch -->
    <title>D0B9562F-6C2A-4861-897F-0C17E7B7BCDF</title>
    <desc>Created with sketchtool.</desc>
    <defs>
        <path d="M9.99999998,22 C12.25,22 13,20.2691881 13,19 C11.4679544,19 8.53204561,19 7,19 C7,20.2691881 7.74999998,22 9.99999998,22 Z" id="path-1"></path>
        <mask id="mask-2" maskContentUnits="userSpaceOnUse" maskUnits="objectBoundingBox" x="0" y="0" width="6" height="3" fill="white">
            <use xlink:href="#path-1"></use>
        </mask>
        <path d="M10,0 C8,3.55161484e-07 7.33333333,1.24137931 7.33333333,2.48275862 C6.66666667,2.48275862 2.66666667,3.72413793 2.66666667,8.06896552 C2.66666667,12.4137931 2.66666667,12.4137931 1.33333333,13.6551724 C0,14.8965517 0,16.137931 0,18 L20,18 C20,17.9313341 20,17.8635122 19.9999331,17.7965032 C19.9981869,16.0463765 19.9508318,14.8507744 18.6666667,13.6551724 C17.3333333,12.4137931 17.3333333,12.4137931 17.3333333,8.06896552 C17.3333333,3.72413793 13.3333333,2.48275862 12.6666667,2.48275862 C12.6666667,1.24137931 12,-3.55161484e-07 10,0 Z" id="path-3"></path>
        <mask id="mask-4" maskContentUnits="userSpaceOnUse" maskUnits="objectBoundingBox" x="0" y="0" width="20" height="18" fill="white">
            <use xlink:href="#path-3"></use>
        </mask>
    </defs>
    <g id="web_toon" stroke="none" stroke-width="1" fill="none" fill-rule="evenodd">
        <g id="3.8_web_bookview00" transform="translate(-1155.000000, -19.000000)" stroke-width="2" stroke="#000000">
            <g id="navi">
                <g id="button" transform="translate(1069.000000, 0.000000)">
                    <g id="alarm_icon" transform="translate(84.000000, 18.000000)">
                        <g id="Group-3" transform="translate(2.000000, 1.000000)">
                            <use id="Oval-11" mask="url(#mask-2)" xlink:href="#path-1"></use>
                            <use id="Path-19" mask="url(#mask-4)" xlink:href="#path-3"></use>
                        </g>
                    </g>
                </g>
            </g>
        </g>
    </g>
</svg>