<?xml version="1.0" encoding="UTF-8" standalone="no"?>
<svg width="134px" height="40px" viewBox="0 0 134 40" version="1.1" xmlns="http://www.w3.org/2000/svg" xmlns:xlink="http://www.w3.org/1999/xlink" xmlns:sketch="http://www.bohemiancoding.com/sketch/ns">
    <!-- Generator: Sketch 3.3.3 (12081) - http://www.bohemiancoding.com/sketch -->
    <title>web_icon_logo</title>
    <desc>Created with Sketch.</desc>
    <defs></defs>
    <g id="Page-1" stroke="none" stroke-width="1" fill="none" fill-rule="evenodd" sketch:type="MSPage">
        <g id="web_icon_logo" sketch:type="MSLayerGroup">
            <path d="M44.13,0 L58.675,0 L60.753,2.078 L60.753,0 L110.623,0 L114.779,4.156 L114.779,0 L129.324,0 L134,4.675 L134,10.909 L131.922,10.909 L131.922,15.325 L134,17.403 L134,37.922 L131.922,37.922 L131.922,40 L119.454,40 L117.377,37.922 L117.377,40 L90.363,40 L86.208,35.844 L86.208,40 L65.429,40 L63.351,37.922 L63.351,40 L50.883,40 L44.13,33.247 L44.13,0 Z M56.597,18.701 L48.285,18.701 L48.285,20.779 L46.207,20.779 L46.207,31.169 L48.285,31.169 L48.285,33.247 L56.597,33.247 L56.597,31.169 L58.675,31.169 L58.675,29.091 L54.52,29.091 L54.52,31.169 L50.364,31.169 L50.364,20.779 L54.52,20.779 L54.52,22.857 L58.676,22.857 L58.676,20.779 L56.598,20.779 L56.598,18.701 L56.597,18.701 Z M127.247,4.156 L127.247,2.078 L116.857,2.078 L116.857,16.623 L127.247,16.623 L127.247,14.545 L121.013,14.545 L121.013,10.39 L125.169,10.39 L125.169,8.312 L121.013,8.312 L121.013,4.156 L127.247,4.156 L127.247,4.156 Z M79.454,16.624 L83.61,16.624 L83.61,4.156 L87.766,4.156 L87.766,2.078 L75.299,2.078 L75.299,4.156 L79.454,4.156 L79.454,16.624 L79.454,16.624 Z M114.779,14.545 L108.546,14.545 L108.546,2.078 L104.39,2.078 L104.39,16.623 L114.78,16.623 L114.78,14.545 L114.779,14.545 Z M56.597,2.078 L46.208,2.078 L46.208,16.623 L56.597,16.623 L56.597,14.545 L58.675,14.545 L58.675,10.39 L56.597,10.39 L56.597,8.312 L58.675,8.312 L58.675,4.156 L56.597,4.156 L56.597,2.078 L56.597,2.078 Z M54.52,14.545 L50.364,14.545 L50.364,10.39 L54.52,10.39 L54.52,14.545 L54.52,14.545 Z M54.52,8.312 L50.364,8.312 L50.364,4.156 L54.52,4.156 L54.52,8.312 L54.52,8.312 Z M71.143,2.078 L62.831,2.078 L62.831,4.156 L60.753,4.156 L60.753,16.624 L64.909,16.624 L64.909,10.39 L69.064,10.39 L69.064,16.624 L73.22,16.624 L73.22,4.156 L71.142,4.156 L71.142,2.078 L71.143,2.078 Z M69.064,8.312 L64.909,8.312 L64.909,4.156 L69.064,4.156 L69.064,8.312 L69.064,8.312 Z M102.312,2.078 L89.844,2.078 L89.844,4.156 L94,4.156 L94,16.624 L98.156,16.624 L98.156,4.156 L102.311,4.156 L102.311,2.078 L102.312,2.078 Z M94,33.247 L98.156,33.247 L98.156,18.701 L94,18.701 L94,33.247 L94,33.247 Z M110.623,18.701 L102.311,18.701 L102.311,20.779 L100.233,20.779 L100.233,31.169 L102.311,31.169 L102.311,33.247 L110.623,33.247 L110.623,31.169 L112.701,31.169 L112.701,29.091 L108.546,29.091 L108.546,31.169 L104.39,31.169 L104.39,20.779 L108.546,20.779 L108.546,22.857 L112.701,22.857 L112.701,20.779 L110.623,20.779 L110.623,18.701 L110.623,18.701 Z M87.767,20.779 L85.689,20.779 L85.689,22.857 L81.533,22.857 L81.533,20.779 L79.455,20.779 L79.455,18.701 L75.3,18.701 L75.3,33.247 L79.455,33.247 L79.455,24.935 L81.533,24.935 L81.533,27.012 L85.689,27.012 L85.689,24.935 L87.767,24.935 L87.767,33.247 L91.922,33.247 L91.922,18.701 L87.767,18.701 L87.767,20.779 L87.767,20.779 Z M71.143,18.701 L62.831,18.701 L62.831,20.779 L60.753,20.779 L60.753,31.169 L62.831,31.169 L62.831,33.247 L71.143,33.247 L71.143,31.169 L73.221,31.169 L73.221,20.779 L71.143,20.779 L71.143,18.701 L71.143,18.701 Z M69.064,31.169 L64.909,31.169 L64.909,20.779 L69.064,20.779 L69.064,31.169 L69.064,31.169 Z M125.169,18.701 L116.857,18.701 L116.857,20.779 L114.779,20.779 L114.779,24.935 L116.857,24.935 L116.857,27.012 L123.09,27.012 L123.09,31.168 L118.935,31.168 L118.935,29.09 L114.779,29.09 L114.779,31.168 L116.857,31.168 L116.857,33.246 L125.169,33.246 L125.169,31.168 L127.247,31.168 L127.247,27.012 L125.169,27.012 L125.169,24.935 L118.936,24.935 L118.936,20.779 L123.091,20.779 L123.091,22.857 L127.247,22.857 L127.247,20.779 L125.169,20.779 L125.169,18.701 L125.169,18.701 Z" id="Shape" fill="#FFFFFF" sketch:type="MSShapeGroup"></path>
            <path d="M24.9259463,4.8833834 L28.187,8 C30.228,10 31.486,12.987 31.486,16.008 C31.486,16.488 31.453,17.173 31.39,17.642 L34.521,20.773 C34.798,21.05 35.073,21.423 35.313,21.93 C35.885,23.136 36.163,24.879 36.162,27.259 C36.162,30.454 35.049,33.422 33.027,35.614 C31.296,37.49 28.002,39.726 22.136,39.726 C15.822,39.726 11.605,38.627 9.213,36.275 L4.512,31.574 L4.51224249,31.5738148 C3.00676287,30.0757016 2.2374931,28.0715915 2.138,25.52 C2.063,23.597 2.583,21.9 3.656,20.521 C2.895,20.343 2.199,20.062 1.574,19.68 C0.554,19.057 0.018,17.916 0.175,16.702 C0.335,15.463 1.177,14.441 2.32,14.098 C3.015,13.89 3.227,13.752 3.278,13.712 C3.379,13.499 3.432,12.811 3.436,11.667 C3.437,11.132 3.524,8.328 5.067,5.582 C6.428,3.163 9.23,0.272 14.917,0.245 C19.0283647,0.245 22.7334569,2.02214695 24.9259463,4.8833834 L24.9259463,4.8833834 Z M28.111,17.388 C26.559,20.713 24.994,20.505 24.994,20.505 C23.387,20.237 21.534,19.615 20.533,19.09 C21.425,18.504 22.206,17.781 22.847,16.958 C21.029,16.472 17.556,15.409 14.288,13.653 C13.612,14.689 12.064,15.752 10.178,15.208 C6.068,14.023 7.242,9.461 7.702,8.076 C7.392,7.576 7.14,7.05 6.937,6.503 C5.652,8.726 5.516,11.113 5.514,11.673 C5.505,14.642 5.26,15.386 2.917,16.089 C2.205,16.303 1.925,17.46 2.657,17.907 C4.846,19.243 7.852,18.427 7.852,18.427 C7.852,18.427 9.128,19.026 10.709,18.947 C7.83,19.604 4.044,21.04 4.216,25.44 C4.371,29.42 6.262,32.972 17.463,32.972 C26.501,32.972 29.411,27.253 29.411,22.582 C29.41,17.674 28.111,17.388 28.111,17.388 Z M6.514,18 C6.514,18 9.348,17.73 8.851,15.922 L10.15,18 L6.514,18 Z M23.597,15.842 C24.323,14.559 24.735,13.096 24.735,11.544 C24.735,6.451 20.316,2.296 14.865,2.323 C11.346,2.34 9.15,3.654 7.778,5.297 C8.656,7.679 11.88,12.852 23.597,15.842 Z" id="Shape" fill="#FFFFFF" sketch:type="MSShapeGroup"></path>
            <g id="Group" transform="translate(7.000000, 2.000000)"></g>
        </g>
    </g>
</svg>