<?xml version="1.0" encoding="UTF-8" standalone="no"?>
<svg width="19px" height="16px" viewBox="0 0 19 16" version="1.1" xmlns="http://www.w3.org/2000/svg" xmlns:xlink="http://www.w3.org/1999/xlink">
    <!-- Generator: sketchtool 3.7.2 (28276) - http://www.bohemiancoding.com/sketch -->
    <title>6469B620-98C3-4006-8CFB-0C32FA25BAD4</title>
    <desc>Created with sketchtool.</desc>
    <defs></defs>
    <g id="web_board" stroke="none" stroke-width="1" fill="none" fill-rule="evenodd" opacity="0.54">
        <g id="web_board_normal_main" transform="translate(-1164.000000, -719.000000)">
            <g id="private" transform="translate(1044.000000, 667.000000)">
                <g id="웹상공개" transform="translate(120.000000, 50.000000)">
                    <rect id="Rectangle-55" x="0" y="0" width="20" height="20"></rect>
                    <path d="M17.3149296,11.9784507 C17.3149296,12.2978873 17.035493,12.5771831 16.7160563,12.5771831 L3.3415493,12.5771831 C3.02211268,12.5771831 2.74267606,12.2978873 2.74267606,11.9784507 L2.74267606,5.03169014 C2.74267606,4.71225352 3.02211268,4.4328169 3.3415493,4.4328169 L16.7160563,4.4328169 C17.035493,4.4328169 17.3149296,4.71225352 17.3149296,5.03169014 L17.3149296,11.9784507 Z M17.1552113,2.67605634 L2.82253521,2.67605634 C1.82450704,2.67605634 0.985915493,3.51450704 0.985915493,4.51253521 L0.985915493,12.4574648 C0.985915493,13.455493 1.82450704,14.2939437 2.82253521,14.2939437 L8.17225352,14.2939437 L5.85676056,17.2483099 L9.76929577,17.2483099 L13.681831,17.2483099 L11.3661972,14.2939437 L17.1552113,14.2939437 C18.1533803,14.2939437 18.9916901,13.455493 18.9916901,12.4574648 L18.9916901,4.51253521 C18.9916901,3.51450704 18.1932394,2.67605634 17.1552113,2.67605634 L17.1552113,2.67605634 Z" id="웹에공개" fill="#646464"></path>
                </g>
            </g>
        </g>
    </g>
</svg>