<?xml version="1.0" encoding="UTF-8" standalone="no"?>
<svg width="20px" height="20px" viewBox="0 0 20 20" version="1.1" xmlns="http://www.w3.org/2000/svg" xmlns:xlink="http://www.w3.org/1999/xlink">
    <!-- Generator: sketchtool 3.7.2 (28276) - http://www.bohemiancoding.com/sketch -->
    <title>D3F06D2F-7C26-4B29-B005-C80DBC1C0112</title>
    <desc>Created with sketchtool.</desc>
    <defs></defs>
    <g id="web_board" stroke="none" stroke-width="1" fill="none" fill-rule="evenodd" opacity="0.54">
        <g id="web_board_normal_main" transform="translate(-1114.000000, -717.000000)">
            <g id="private" transform="translate(1044.000000, 667.000000)">
                <g id="공개" transform="translate(70.000000, 50.000000)">
                    <rect id="Rectangle-55" x="0" y="0" width="20" height="20"></rect>
                    <path d="M9.98098592,0 C15.4933803,0 19.9619718,4.46873239 19.9619718,9.98098592 C19.9619718,15.4933803 15.4933803,19.9619718 9.98098592,19.9619718 C4.46859155,19.9619718 0,15.4933803 0,9.98098592 C0,4.46873239 4.46859155,0 9.98098592,0 Z M2.75477465,6.98669014 C3.07421127,6.62739437 3.39350704,6.26809859 3.71294366,5.86880282 C4.35167606,5.86880282 4.9905493,6.06838028 5.07026761,6.58753521 C4.71111268,6.98669014 4.35167606,7.38598592 3.99238028,7.78528169 L3.99238028,7.98485915 C3.99238028,7.98485915 3.99238028,8.02471831 4.03238028,8.02471831 C4.23195775,8.02471831 4.35167606,8.02471831 4.51139437,8.06457746 C4.3118169,8.38401408 3.95252113,8.54387324 3.79280282,8.86316901 C4.19209859,8.98288732 4.47139437,8.50373239 4.71111268,8.34415493 C5.30984507,8.06457746 5.90871831,7.74528169 6.46773239,7.46570423 C6.82702817,7.34612676 7.2661831,7.38598592 7.54561972,7.26612676 C7.94491549,8.06457746 8.62350704,7.34612676 8.94294366,7.98485915 C9.02280282,8.14457746 8.7433662,8.58373239 8.66350704,8.86316901 C8.78322535,8.94302817 8.86308451,8.98288732 8.98294366,9.06274648 C8.78322535,9.42204225 8.42392958,9.30232394 8.22435211,9.86119718 C8.46392958,10.1806338 8.82322535,10.3803521 8.94294366,10.779507 C9.06280282,10.6197887 9.18252113,10.4202113 9.30223944,10.260493 C9.5818169,10.3003521 9.66167606,10.4600704 9.70153521,10.6996479 C9.90111268,10.6197887 9.98097183,10.4999296 10.100831,10.3803521 C10.3402676,10.5799296 10.8194225,11.1388028 10.8194225,11.5379577 C10.7794225,11.5780986 10.7395634,11.6179577 10.6995634,11.6578169 C10.5399859,11.6179577 10.4201268,11.5779577 10.2605493,11.5379577 C10.1406901,11.6179577 9.98097183,11.6976761 9.86125352,11.7776761 C9.82125352,11.8175352 9.82125352,11.8573944 9.78139437,11.8973944 C9.98097183,11.8973944 10.1406901,11.9372535 10.2605493,12.0171127 C10.3004085,12.176831 10.2605493,12.3765493 10.3004085,12.5361268 C10.3801268,12.6559859 10.4601268,12.8157042 10.5798451,12.9352817 C10.6597042,13.3745775 10.1806901,13.6540141 10.1406901,14.0533099 C10.2205493,14.4924648 10.3004085,14.8916197 10.3402676,15.3307746 L10.3801268,15.3307746 C10.5399859,15.2110563 10.6995634,15.2110563 10.8992817,15.1311972 C11.2984366,14.9714789 11.4581549,14.4924648 12.017169,14.4126056 C12.2166056,14.3726056 12.2966056,14.5721831 12.5361831,14.5721831 C12.6959014,14.4126056 12.7756197,14.2528873 13.0151972,14.1730282 C13.1749155,14.2528873 13.2547746,14.2927465 13.4543521,14.2927465 C13.7737887,14.0134507 13.9733662,13.5341549 14.1332254,13.0551408 L13.8536479,13.0551408 C13.6140704,12.4962676 13.9733662,11.5379577 13.6937887,10.9792254 C13.3346338,10.3403521 12.8554789,9.66161972 12.3764648,9.18260563 C12.1368873,8.94302817 11.6577324,8.7434507 11.4981549,8.38401408 C11.4182958,8.26429577 11.5380141,8.10457746 11.5778732,7.945 C11.8973099,7.02669014 12.4163239,7.50584507 12.9354789,7.02669014 C13.1749155,6.78711268 13.4543521,6.50767606 13.7337887,6.26809859 C13.8536479,6.22809859 14.0132254,6.22809859 14.1332254,6.18823944 C14.372662,5.98866197 14.2129437,5.03035211 14.332662,4.75105634 C14.372662,4.67119718 15.0513944,3.99246479 15.6502676,3.35359155 C14.1730845,1.99612676 12.1767465,1.19767606 9.98097183,1.19767606 C5.82885915,1.19767606 2.35561972,4.1121831 1.43730986,7.98485915 C1.55702817,7.74528169 1.59702817,7.46570423 1.79660563,7.30612676 C2.03604225,7.1065493 2.47533803,7.18640845 2.75477465,6.98669014 Z M15.8897465,16.0893521 C15.7698873,16.0893521 15.6503099,16.0893521 15.5303099,16.049493 C15.4904507,16.049493 15.4107324,16.049493 15.3707324,16.0893521 C15.2508732,16.2092113 15.1311549,16.3687887 15.0912958,16.5683662 C14.692,16.6882254 14.2528451,16.528507 14.0132676,16.8479437 C14.1331268,17.007662 14.2927042,17.3269577 14.5322817,17.5266761 C14.692,17.4468169 14.8118592,17.3669577 14.9314366,17.2472394 C14.9314366,17.2072394 14.9714366,17.2072394 14.9714366,17.1672394 L15.0114366,17.1672394 C15.3707324,16.9278028 15.7300282,16.6483662 16.0494648,16.3289296 C16.0096056,16.2890704 15.9296056,16.2092113 15.8897465,16.0893521 Z M2.3555493,12.6958732 C2.43540845,12.6560141 2.51526761,12.6560141 2.63498592,12.6160141 C2.67498592,12.6958732 2.75470423,12.8157324 2.79470423,12.8954507 C2.87456338,12.8555915 2.99428169,12.8555915 3.07414085,12.8157324 C3.07414085,12.6560141 3.11414085,12.4962958 3.11414085,12.3364366 C3.59315493,11.8175634 4.47146479,11.6578451 5.26991549,11.8175634 C5.26991549,11.4582676 5.30991549,11.2585493 5.38977465,11.0191127 C4.99047887,10.8593944 4.6311831,11.0191127 4.19202817,10.9391127 C3.79273239,10.8593944 3.67301408,10.4600986 3.31371831,10.4202394 C2.67498592,10.2605211 2.3555493,11.138831 1.91639437,11.2985493 C1.71667606,11.3784085 1.47723944,11.3384085 1.27752113,11.3384085 C1.39738028,12.1368592 1.6368169,12.8954507 1.95625352,13.6141831 C2.27569014,13.3744648 2.51526761,13.1350282 2.3555493,12.6958732 Z M15.9296338,15.3308028 C15.8897746,15.450662 15.8497746,15.5703803 15.8097746,15.6902394 C15.8497746,15.7300986 15.9296338,15.7699577 15.9696338,15.8098169 C16.1692113,15.7300986 16.4086479,15.7300986 16.6083662,15.7699577 C17.1273803,15.2109437 17.5266761,14.5722113 17.8859718,13.8936197 C17.2870986,14.3327746 17.0475211,15.2909437 15.9296338,15.3308028 Z" fill="#646464"></path>
                </g>
            </g>
        </g>
    </g>
</svg>