<?xml version="1.0" encoding="UTF-8" standalone="no"?>
<svg width="20px" height="22px" viewBox="0 0 20 22" version="1.1" xmlns="http://www.w3.org/2000/svg" xmlns:xlink="http://www.w3.org/1999/xlink">
    <!-- Generator: sketchtool 3.7.2 (28276) - http://www.bohemiancoding.com/sketch -->
    <title>C25F3613-6D82-4610-A470-A14D6E72ACAD</title>
    <desc>Created with sketchtool.</desc>
    <defs>
        <path d="M12,1 C10,1.00000036 9.33333333,2.24137931 9.33333333,3.48275862 C8.66666667,3.48275862 4.66666667,4.72413793 4.66666667,9.06896552 C4.66666667,13.4137931 4.66666667,13.4137931 3.33333333,14.6551724 C2,15.8965517 2,17.137931 2,19 L22,19 C22,18.9313341 22,18.8635122 21.9999331,18.7965032 C21.9981869,17.0463765 21.9508318,15.8507744 20.6666667,14.6551724 C19.3333333,13.4137931 19.3333333,13.4137931 19.3333333,9.06896552 C19.3333333,4.72413793 15.3333333,3.48275862 14.6666667,3.48275862 C14.6666667,2.24137931 14,0.999999645 12,1 Z" id="path-1"></path>
        <mask id="mask-2" maskContentUnits="userSpaceOnUse" maskUnits="objectBoundingBox" x="0" y="0" width="20" height="18" fill="white">
            <use xlink:href="#path-1"></use>
        </mask>
    </defs>
    <g id="web_alarm" stroke="none" stroke-width="1" fill="none" fill-rule="evenodd">
        <g id="web_alarm_menu" transform="translate(-1160.000000, -21.000000)">
            <g id="navi">
                <g id="menu" transform="translate(1140.000000, 0.000000)">
                    <g id="alarm_icon" transform="translate(18.000000, 20.000000)">
                        <path d="M12,23 C14.25,23 15,21.2691881 15,20 C13.4679544,20 10.5320456,20 9,20 C9,21.2691881 9.74999998,23 12,23 Z" id="Oval-11" fill="#FFFFFF"></path>
                        <use id="Path-19" stroke="#FFFFFF" mask="url(#mask-2)" stroke-width="2" xlink:href="#path-1"></use>
                    </g>
                </g>
            </g>
        </g>
    </g>
</svg>