<?xml version="1.0" encoding="UTF-8" standalone="no"?>
<svg width="14px" height="20px" viewBox="0 0 14 20" version="1.1" xmlns="http://www.w3.org/2000/svg" xmlns:xlink="http://www.w3.org/1999/xlink">
    <!-- Generator: sketchtool 3.7.2 (28276) - http://www.bohemiancoding.com/sketch -->
    <title>DCA554DE-F651-47F6-ACA4-B919ED8383EF</title>
    <desc>Created with sketchtool.</desc>
    <defs></defs>
    <g id="web_board" stroke="none" stroke-width="1" fill="none" fill-rule="evenodd" opacity="0.54">
        <g id="web_board_normal_main" transform="translate(-1047.000000, -667.000000)">
            <g id="private" transform="translate(1044.000000, 667.000000)">
                <g id="비공개">
                    <rect id="Rectangle-55" x="0" y="0" width="20" height="20"></rect>
                    <path d="M10.0876056,3.48014085 C11.6446479,3.48014085 12.9621127,4.75760563 12.9621127,6.35464789 L12.9621127,8.75 L7.21309859,8.75 L7.21309859,6.35464789 C7.21309859,4.79760563 8.49070423,3.48014085 10.0876056,3.48014085 M15.5570423,6.35464789 C15.5570423,3.32042254 13.081831,0.845070423 10.0876056,0.845070423 C7.09323944,0.845070423 4.57802817,3.32042254 4.57802817,6.31464789 L4.57802817,8.75 C3.89929577,8.86985915 3.38028169,9.46873239 3.38028169,10.2271831 L3.38028169,17.6132394 C3.38028169,18.4515493 4.05901408,19.0902817 4.85760563,19.0902817 L15.2776056,19.0902817 C16.1160563,19.0902817 16.7547887,18.4116901 16.7547887,17.6132394 L16.7547887,10.2271831 C16.7947887,9.50859155 16.2757746,8.90971831 15.5570423,8.79 L15.5570423,6.35464789 Z" fill="#646464"></path>
                </g>
            </g>
        </g>
    </g>
</svg>