<?xml version="1.0" encoding="UTF-8" standalone="no"?>
<svg width="16px" height="20px" viewBox="0 0 16 20" version="1.1" xmlns="http://www.w3.org/2000/svg" xmlns:xlink="http://www.w3.org/1999/xlink">
    <!-- Generator: sketchtool 3.7.1 (28215) - http://www.bohemiancoding.com/sketch -->
    <title>648DA5CE-82F7-449D-866C-83A0140A1953</title>
    <desc>Created with sketchtool.</desc>
    <defs>
        <rect id="path-1" x="0" y="0" width="12" height="16"></rect>
        <mask id="mask-2" maskContentUnits="userSpaceOnUse" maskUnits="objectBoundingBox" x="0" y="0" width="12" height="16" fill="white">
            <use xlink:href="#path-1"></use>
        </mask>
    </defs>
    <g id="web_upload" stroke="none" stroke-width="1" fill="none" fill-rule="evenodd">
        <g id="web_upload_02-illust_list" transform="translate(-417.000000, -365.000000)">
            <g id="others" transform="translate(409.000000, 359.000000)">
                <g id="Group" transform="translate(8.000000, 6.000000)">
                    <use id="Rectangle-339" stroke="#FFFFFF" mask="url(#mask-2)" stroke-width="2" xlink:href="#path-1"></use>
                    <path d="M13,2 L14,2 L14,17 L13,17 L13,2 L13,2 Z M2,17 L14,17 L14,18 L2,18 L2,17 L2,17 Z" id="Combined-Shape" fill="#FFFFFF"></path>
                    <path d="M15,4 L16,4 L16,19 L15,19 L15,4 L15,4 Z M4,19 L16,19 L16,20 L4,20 L4,19 L4,19 Z" id="Combined-Shape" fill="#FFFFFF"></path>
                </g>
            </g>
        </g>
    </g>
</svg>