<?xml version="1.0" encoding="utf-8"?>
<!-- Generator: Adobe Illustrator 16.0.0, SVG Export Plug-In . SVG Version: 6.00 Build 0)  -->
<!DOCTYPE svg PUBLIC "-//W3C//DTD SVG 1.1//EN" "http://www.w3.org/Graphics/SVG/1.1/DTD/svg11.dtd">
<svg version="1.1" id="Layer_1" xmlns="http://www.w3.org/2000/svg" xmlns:xlink="http://www.w3.org/1999/xlink" x="0px" y="0px"
	 width="40px" height="40px" viewBox="0 0 40 40" enable-background="new 0 0 40 40" xml:space="preserve">

<path fill="#3D194D" d="M35.313,21.93c-0.24-0.507-0.515-0.88-0.792-1.157l0,0l-3.131-3.131c0.063-0.469,0.096-1.154,0.096-1.634
	c0-3.021-1.258-6.008-3.299-8.008h0.004l-4.655-4.445l-1.364,0.65l0.422,1.068C21.636,5.035,20.629,5,19.592,5H19.53
	c-5.625,0-8.427,2.878-9.787,5.297c-1.543,2.746-1.63,5.531-1.632,6.065c-0.004,1.145-0.057,1.823-0.158,2.036
	c-0.051,0.04-0.263,0.172-0.958,0.381c-1.143,0.343-1.985,1.363-2.145,2.602c-0.157,1.214,0.379,2.354,1.399,2.977
	c0.625,0.382,1.321,0.662,2.082,0.84c-1.001,1.287-1.514,2.854-1.518,4.619l-2.301,1.757l4.701,4.701l0.004-0.002
	c2.388,2.354,6.605,3.453,12.919,3.453c5.866,0,9.16-2.236,10.891-4.112c2.022-2.192,3.135-5.16,3.135-8.355
	C36.163,24.879,35.885,23.136,35.313,21.93z"/>
<g>
	<path fill="#542A68" d="M14.917,0.245h-0.062C9.23,0.272,6.428,3.163,5.067,5.582c-1.543,2.746-1.63,5.55-1.631,6.085
		c-0.004,1.144-0.057,1.832-0.158,2.045c-0.051,0.04-0.263,0.178-0.958,0.386c-1.143,0.343-1.985,1.365-2.145,2.604
		c-0.157,1.214,0.379,2.355,1.399,2.978c0.625,0.382,1.321,0.663,2.082,0.841c-1.073,1.379-1.593,3.076-1.518,4.999
		c0.257,6.591,4.983,9.529,15.323,9.529c5.866,0,9.16-2.236,10.891-4.112c2.022-2.192,3.135-5.159,3.135-8.355
		c0-2.378-0.278-4.121-0.85-5.327c-0.662-1.397-1.587-1.788-2.079-1.896c-0.15-0.034-0.3-0.049-0.449-0.049
		c-0.793,0-1.535,0.456-1.882,1.199c-0.581,1.244-1.069,1.712-1.287,1.874c-0.16-0.033-0.322-0.068-0.484-0.106
		c1.509-1.924,2.355-4.278,2.355-6.732C26.812,5.313,21.476,0.245,14.917,0.245L14.917,0.245z"/>
</g>
<g>
	<path fill="#FFF769" d="M28.111,17.388c-1.552,3.325-3.117,3.117-3.117,3.117c-1.607-0.268-3.46-0.89-4.461-1.415
		c0.892-0.586,1.673-1.309,2.314-2.132c-1.818-0.486-5.291-1.549-8.559-3.305c-0.676,1.036-2.224,2.099-4.11,1.555
		c-4.11-1.185-2.936-5.747-2.476-7.132C7.392,7.576,7.14,7.05,6.937,6.503c-1.285,2.223-1.421,4.61-1.423,5.17
		c-0.009,2.969-0.254,3.713-2.597,4.416c-0.712,0.214-0.992,1.371-0.26,1.818c2.189,1.336,5.195,0.52,5.195,0.52
		s1.276,0.599,2.857,0.52c-2.879,0.657-6.665,2.093-6.493,6.493c0.155,3.98,2.046,7.532,13.247,7.532
		c9.038,0,11.948-5.719,11.948-10.39C29.41,17.674,28.111,17.388,28.111,17.388z M6.514,18c0,0,2.834-0.27,2.337-2.078L10.15,18
		H6.514z"/>
	<path fill="#FFF769" d="M23.597,15.842c0.726-1.283,1.138-2.746,1.138-4.298c0-5.093-4.419-9.248-9.87-9.221
		C11.346,2.34,9.15,3.654,7.778,5.297C8.656,7.679,11.88,12.852,23.597,15.842z"/>
</g>
</svg>
